<?xml version="1.0" standalone="no"?>
<!DOCTYPE svg PUBLIC "-//W3C//DTD SVG 20010904//EN"
 "http://www.w3.org/TR/2001/REC-SVG-20010904/DTD/svg10.dtd">
<svg version="1.0" xmlns="http://www.w3.org/2000/svg"
 width="290.000000pt" height="200.000000pt" viewBox="0 0 290.000000 200.000000"
 preserveAspectRatio="xMidYMid meet">

<g transform="translate(0.000000,200.000000) scale(0.100000,-0.100000)"
fill="#000000" stroke="none">
<path d="M2580 1877 c-75 -50 -90 -121 -90 -422 1 -229 11 -345 35 -382 42
-64 151 -84 215 -40 65 44 75 79 78 292 2 105 -1 252 -6 327 -11 156 -24 188
-90 226 -51 28 -100 28 -142 -1z m105 -112 c23 -23 25 -31 26 -137 1 -62 2
-147 2 -188 1 -41 0 -126 -1 -187 -2 -107 -3 -113 -27 -129 -13 -9 -33 -13
-43 -9 -41 13 -47 54 -47 347 l0 276 24 26 c30 32 36 32 66 1z"/>
<path d="M2022 1879 c-21 -6 -36 -19 -42 -35 -11 -29 -13 -718 -2 -779 l7 -40
90 -3 c117 -3 167 19 204 91 24 47 24 51 25 335 1 319 -2 341 -59 391 -54 47
-142 63 -223 40z m155 -126 c16 -24 18 -55 18 -288 0 -281 -4 -307 -54 -331
-28 -14 -47 -9 -57 14 -13 31 -18 587 -5 610 18 33 75 30 98 -5z"/>
<path d="M106 1867 c-30 -22 -35 -90 -35 -457 -1 -259 2 -351 12 -370 12 -24
17 -25 116 -28 116 -3 131 3 131 54 0 40 -21 54 -79 54 -67 0 -71 4 -71 81 0
59 3 70 22 83 12 9 35 16 50 16 30 0 48 23 48 62 0 34 -18 48 -62 48 -27 0
-40 5 -48 19 -5 11 -10 85 -10 170 0 144 1 151 22 165 12 9 41 16 63 16 46 0
65 14 65 46 0 51 -6 54 -109 54 -65 0 -103 -4 -115 -13z"/>
<path d="M535 1863 c-5 -10 -10 -200 -13 -422 -4 -382 -3 -405 14 -418 26 -19
62 -16 74 6 6 12 10 106 10 237 0 182 2 216 13 204 8 -8 47 -95 87 -193 40
-98 83 -193 94 -210 23 -34 63 -47 77 -25 5 7 9 196 9 419 0 362 -2 408 -16
413 -26 10 -62 7 -71 -6 -4 -7 -6 -118 -4 -245 2 -145 -1 -233 -7 -233 -13 0
-55 96 -132 305 -65 177 -66 180 -97 183 -22 2 -33 -2 -38 -15z"/>
<path d="M1121 1861 c-27 -27 -33 -128 -29 -502 2 -249 6 -319 17 -332 11 -14
32 -17 108 -17 113 0 133 8 133 55 0 42 -10 49 -85 55 l-60 5 -3 70 c-3 62 0
72 19 87 11 10 34 18 50 18 31 0 49 23 49 62 0 34 -18 48 -62 48 -27 0 -40 5
-48 19 -5 11 -10 85 -10 169 0 172 4 182 81 182 50 0 69 13 69 46 0 51 -6 54
-111 54 -84 0 -102 -3 -118 -19z"/>
<path d="M1553 1873 c-10 -4 -13 -98 -13 -424 l0 -419 24 -15 c18 -12 46 -15
117 -13 l94 3 3 40 c4 50 -16 67 -68 59 -71 -12 -70 -18 -70 382 0 226 -4 362
-10 375 -10 18 -48 24 -77 12z"/>
<path d="M1545 848 c21 -69 18 -118 -11 -183 -16 -35 -32 -65 -36 -65 -13 0
-19 60 -12 116 5 46 4 56 -7 52 -8 -2 -15 -17 -17 -31 -4 -30 -14 -34 -32 -12
-14 17 -30 20 -30 4 0 -5 11 -27 25 -47 31 -45 32 -64 3 -60 -35 5 -32 -18 4
-28 42 -12 47 -44 17 -114 -27 -62 -48 -55 -31 11 12 48 5 71 -14 45 -11 -16
-18 -13 -69 38 -30 31 -62 56 -70 56 -24 0 -17 -16 20 -44 19 -15 35 -30 35
-34 0 -4 -20 -6 -45 -4 -29 3 -45 0 -45 -7 0 -14 10 -18 73 -26 45 -6 50 -10
68 -48 25 -55 24 -104 -3 -163 l-21 -49 -14 33 c-10 24 -11 43 -3 75 5 23 10
50 10 60 0 30 -23 13 -33 -23 l-8 -33 -46 47 c-25 25 -52 46 -60 46 -19 0 -16
-11 14 -42 l27 -28 -38 0 c-54 0 -41 -24 15 -28 49 -4 73 -21 88 -62 l10 -29
-51 -3 c-74 -4 -77 -28 -4 -28 69 0 76 -12 48 -80 -19 -45 -19 -60 -2 -60 4 0
22 33 40 73 33 73 56 107 71 107 5 0 25 -25 45 -55 20 -30 43 -55 50 -55 21 0
17 10 -21 67 -19 29 -35 56 -35 62 0 9 53 31 76 31 7 0 33 -21 57 -47 27 -28
49 -43 56 -39 8 5 3 18 -19 42 -16 19 -30 37 -30 40 0 3 18 3 40 -1 32 -5 40
-4 40 8 0 16 -41 27 -101 27 -41 0 -49 9 -24 30 8 7 15 19 15 26 0 25 -24 14
-50 -22 -25 -35 -77 -70 -88 -60 -12 12 41 102 72 124 54 37 99 39 136 8 18
-14 36 -26 41 -26 17 0 9 28 -13 44 -22 15 -20 16 36 10 46 -5 58 -4 54 7 -6
19 -65 32 -125 27 -47 -4 -51 -3 -42 13 23 44 -9 39 -40 -6 -25 -36 -60 -51
-43 -17 5 9 17 33 26 53 9 20 28 42 41 49 22 12 28 11 49 -9 28 -27 47 -10 21
19 -20 23 -11 29 55 37 54 6 64 26 17 31 l-27 3 20 29 c23 33 25 40 7 40 -7 0
-28 -19 -45 -43 -29 -38 -92 -78 -92 -58 0 5 18 47 40 94 45 95 45 97 27 97
-7 0 -20 -15 -29 -32 l-15 -33 -12 38 c-14 41 -49 55 -36 15z"/>
<path d="M85 740 c-3 -6 0 -12 7 -15 7 -3 208 -4 447 -3 337 2 435 6 439 16 5
16 -883 18 -893 2z"/>
<path d="M1903 738 c3 -10 101 -13 447 -13 346 0 444 3 448 13 3 9 -91 12
-448 12 -357 0 -451 -3 -447 -12z"/>
<path d="M237 574 c-4 -4 -7 -34 -7 -66 l0 -58 46 0 c32 0 44 4 41 13 -2 6
-12 12 -22 12 -10 0 -20 6 -23 13 -2 7 5 12 17 12 27 0 27 20 1 27 -29 8 -25
23 6 23 39 0 24 24 -17 28 -19 2 -38 0 -42 -4z"/>
<path d="M347 573 c-4 -3 -7 -33 -7 -65 0 -62 18 -79 37 -36 l10 23 12 -23 c6
-12 18 -22 27 -22 12 0 13 4 4 21 -9 15 -8 24 0 35 18 20 4 61 -22 68 -30 8
-53 8 -61 -1z m58 -32 c7 -12 -12 -24 -25 -16 -11 7 -4 25 10 25 5 0 11 -4 15
-9z"/>
<path d="M487 560 c-57 -45 -22 -116 56 -111 31 2 20 31 -12 31 -22 0 -32 6
-37 22 -8 26 21 52 49 44 13 -3 17 0 15 12 -5 25 -40 26 -71 2z"/>
<path d="M727 573 c-4 -3 -7 -33 -7 -65 l0 -58 38 0 c44 0 72 23 72 61 0 32
-10 46 -43 58 -33 13 -51 14 -60 4z m73 -63 c0 -20 -32 -44 -44 -33 -3 3 -6
18 -6 33 0 15 3 30 6 33 12 11 44 -13 44 -33z"/>
<path d="M874 554 c-20 -19 -24 -31 -19 -52 10 -41 24 -52 65 -52 41 0 55 11
65 52 5 21 1 33 -19 52 -32 33 -60 33 -92 0z m64 -13 c8 -4 12 -19 10 -32 -2
-18 -9 -24 -28 -24 -28 0 -39 27 -20 50 14 17 20 18 38 6z"/>
<path d="M1930 517 c0 -53 3 -67 15 -67 10 0 15 10 15 31 l0 30 33 -25 c19
-15 37 -26 41 -26 4 0 6 26 4 58 -2 43 -7 57 -18 57 -8 0 -16 -9 -16 -20 -1
-11 -2 -24 -3 -29 -1 -6 -17 5 -36 24 l-35 34 0 -67z"/>
<path d="M2087 525 c-31 -64 -33 -75 -12 -75 8 0 15 5 15 10 0 14 43 13 58 -2
24 -24 25 4 2 55 -13 28 -27 55 -30 59 -3 5 -18 -17 -33 -47z"/>
<path d="M2190 565 c0 -8 7 -15 15 -15 11 0 15 -12 15 -50 0 -38 4 -50 15 -50
11 0 15 12 15 49 0 41 3 50 21 54 35 9 11 27 -37 27 -32 0 -44 -4 -44 -15z"/>
<path d="M2310 527 c0 -29 5 -58 12 -65 21 -21 66 -14 83 12 21 31 17 101 -5
101 -11 0 -16 -13 -18 -48 -3 -39 -6 -48 -20 -45 -13 2 -18 16 -20 51 -2 33
-7 47 -18 47 -10 0 -14 -13 -14 -53z"/>
<path d="M2450 509 c0 -62 2 -70 15 -59 8 6 13 17 12 22 -5 26 22 15 33 -13 8
-17 27 -40 44 -50 33 -20 106 -26 106 -9 0 6 -9 10 -20 10 -58 0 -137 67 -111
93 32 32 1 77 -53 77 -25 0 -26 -1 -26 -71z m60 27 c0 -8 -7 -16 -15 -20 -8
-3 -15 -4 -15 -2 0 3 -3 11 -6 20 -4 12 0 16 15 16 12 0 21 -6 21 -14z"/>
<path d="M2596 525 c-14 -31 -26 -61 -26 -66 0 -12 17 -11 25 1 3 6 17 10 31
10 13 0 24 -4 24 -10 0 -5 7 -10 15 -10 21 0 18 17 -14 79 l-28 54 -27 -58z"/>
<path d="M2704 566 c-3 -7 -4 -35 -2 -62 3 -49 3 -49 41 -52 28 -2 37 0 37 12
0 9 -9 16 -20 16 -17 0 -20 7 -20 50 0 38 -4 50 -15 50 -9 0 -18 -6 -21 -14z"/>
<path d="M80 512 c0 -48 3 -62 15 -62 9 0 15 9 15 23 0 20 5 24 30 24 25 0 30
-4 30 -24 0 -14 6 -23 15 -23 12 0 15 13 15 61 l0 60 -26 -20 c-33 -26 -42
-26 -71 1 l-23 21 0 -61z"/>
<path d="M607 514 c-31 -62 -29 -74 7 -55 17 10 29 10 44 2 11 -6 25 -11 31
-11 10 0 -39 119 -49 120 -3 0 -18 -25 -33 -56z m43 -14 c0 -5 -4 -10 -10 -10
-5 0 -10 5 -10 10 0 6 5 10 10 10 6 0 10 -4 10 -10z"/>
<path d="M85 290 c-3 -6 0 -12 7 -15 7 -3 208 -4 447 -3 337 2 435 6 439 16 5
16 -883 18 -893 2z"/>
<path d="M1902 288 c4 -10 105 -14 451 -16 393 -2 447 0 447 13 0 13 -55 15
-451 15 -356 0 -450 -3 -447 -12z"/>
</g>
</svg>
